<svg xmlns="http://www.w3.org/2000/svg" xml:space="preserve" viewBox="0 0 150 186"><path fill="#1b1817" d="M150 75A75 75 0 1 1 0 75a75 75 0 1 1 150 0Z"/><path fill="#f03c2e" d="M65.6 36.1 77.2 49A8.1 8.1 0 0 1 87 59.9l11.2 12.3a8.1 8.1 0 1 1-5.2 4.4L82.6 65l-1.5 29c.8.4 1.5 1 2.1 1.6a8.2 8.2 0 1 1-8.7-2.2L76 64.2a8.2 8.2 0 0 1-3.9-11L60.7 40.6"/><path fill="gray" d="M128.9 44.6A57.3 57.3 0 0 0 25.4 69.1a57.7 57.7 0 0 0 36.6 63l-7.7 47.4c3.5 8.3 21.9 7.6 22.6 3.6l7.7-47.4a57.7 57.7 0 0 0 44.2-91.1zm-12.4 8.8a42.2 42.2 0 1 1-76 18 42.2 42.2 0 0 1 76-18z" color="#000" style="text-indent:0;text-transform:none"/><path fill="#fff" d="M127.9 42.1A57.3 57.3 0 0 0 24.3 65.3a57.7 57.7 0 0 0 35.8 63.4L51.8 176c3.4 8.4 21.8 8 22.6 4l8.2-47.4A57.7 57.7 0 0 0 128 42.1Zm-12.3 8.7a42.2 42.2 0 1 1-76.3 17.1 42.2 42.2 0 0 1 76.3-17.1Z" color="#000" style="text-indent:0;text-transform:none"/></svg>
