<?xml version="1.0" encoding="UTF-8" standalone="no"?>
<!-- Created with Inkscape (http://www.inkscape.org/) -->

<svg
   xmlns:dc="http://purl.org/dc/elements/1.1/"
   xmlns:cc="http://creativecommons.org/ns#"
   xmlns:rdf="http://www.w3.org/1999/02/22-rdf-syntax-ns#"
   xmlns:svg="http://www.w3.org/2000/svg"
   xmlns="http://www.w3.org/2000/svg"
   xmlns:sodipodi="http://sodipodi.sourceforge.net/DTD/sodipodi-0.dtd"
   xmlns:inkscape="http://www.inkscape.org/namespaces/inkscape"
   id="svg2"
   version="1.1"
   inkscape:version="0.48.4 r9939"
   width="663.71625"
   height="689.9825"
   xml:space="preserve"
   sodipodi:docname="GitHub-Mark.ai"
   inkscape:export-filename="/home/brn/a.png"
   inkscape:export-xdpi="300"
   inkscape:export-ydpi="300"><metadata
     id="metadata8"><rdf:RDF><cc:Work
         rdf:about=""><dc:format>image/svg+xml</dc:format><dc:type
           rdf:resource="http://purl.org/dc/dcmitype/StillImage" /><dc:title></dc:title></cc:Work></rdf:RDF></metadata><defs
     id="defs6"><clipPath
       clipPathUnits="userSpaceOnUse"
       id="clipPath18"><path
         d="m 0,551.986 530.973,0 L 530.973,0 0,0 0,551.986 z"
         id="path20" /></clipPath></defs><sodipodi:namedview
     pagecolor="#ffffff"
     bordercolor="#666666"
     borderopacity="1"
     objecttolerance="10"
     gridtolerance="10"
     guidetolerance="10"
     inkscape:pageopacity="0"
     inkscape:pageshadow="2"
     inkscape:window-width="998"
     inkscape:window-height="575"
     id="namedview4"
     showgrid="false"
     inkscape:zoom="1.505078"
     inkscape:cx="529.19346"
     inkscape:cy="424.26858"
     inkscape:window-x="26"
     inkscape:window-y="0"
     inkscape:window-maximized="1"
     inkscape:current-layer="layer1" /><g
     id="g10"
     inkscape:groupmode="layer"
     inkscape:label="GitHub-Mark"
     transform="matrix(1.25,0,0,-1.25,0,689.9825)"><g
       id="g14"><g
         id="g16"
         clip-path="url(#clipPath18)" /></g><g
       id="layer1"
       transform="matrix(0.8,0,0,-0.8,76.682542,816.12883)"><path
         sodipodi:type="arc"
         style="fill:#1b1817;fill-opacity:1"
         id="path3375"
         sodipodi:cx="327.75577"
         sodipodi:cy="213.21031"
         sodipodi:rx="89.972168"
         sodipodi:ry="77.52066"
         d="m 417.72794,213.21031 a 89.972168,77.52066 0 1 1 -179.94434,0 89.972168,77.52066 0 1 1 179.94434,0 z"
         transform="matrix(0.83359112,0,0,0.96748402,105.93252,338.88346)" /><path
         d="m 369.79114,506.29143 11.5901,12.85264 c 2.89071,-0.81251 6.11403,-9.5e-4 8.26076,2.37992 2.15774,2.39577 2.62669,5.71312 1.49609,8.513 l 11.17079,12.38767 c 2.90047,-0.83484 6.15569,-0.0305 8.31345,2.36656 3.01708,3.34475 2.75088,8.49831 -0.5948,11.51525 -3.34621,3.01794 -8.49976,2.75173 -11.51897,-0.59501 -2.26846,-2.51756 -2.67859,-6.06286 -1.31475,-8.94761 l -10.41798,-11.55286 -1.49407,28.90793 c 0.75579,0.42402 1.46127,0.97429 2.07436,1.6512 3.01617,3.34434 2.75002,8.49697 -0.59495,11.51803 -3.34562,3.01564 -8.50149,2.74932 -11.51525,-0.59481 -3.01637,-3.34938 -2.75021,-8.502 0.59496,-11.51803 0.82665,-0.74409 1.76692,-1.29107 2.75806,-1.63905 l 1.50709,-29.1766 c -0.95058,-0.44659 -1.82864,-1.08304 -2.57507,-1.91471 -2.28503,-2.53197 -2.68264,-6.09814 -1.29416,-8.99303 l -11.42544,-12.67203"
         id="path10"
         style="fill:#f03c2e;fill-opacity:1"
         inkscape:connector-curvature="0"
         sodipodi:nodetypes="cccccccccccccccccccc" /><path
         inkscape:connector-curvature="0"
         id="path3058-6-2"
         style="text-indent:0;text-transform:none;block-progression:tb;color:#000000;fill:#808080"
         d="m 432.90624,514.79157 c -8.62651,-11.94144 -21.78637,-20.61144 -37.42213,-23.13143 -31.27105,-5.04032 -60.92002,16.34651 -65.95915,47.61732 -4.4179,27.41402 11.47678,53.55062 36.53517,62.98063 l -7.64188,47.42039 c 3.43466,8.36878 21.83767,7.64496 22.58101,3.63934 l 7.65691,-47.39958 c 26.73942,-1.09177 50.03841,-20.92875 54.45694,-48.33427 2.51957,-15.63539 -1.57675,-30.85359 -10.20295,-42.79458 z m -12.29273,8.8486 c 6.31957,8.75826 9.2907,19.93267 7.42684,31.49857 -3.72776,23.13182 -25.31867,38.76079 -48.45213,35.03363 -23.13168,-3.72854 -38.74018,-25.33491 -35.01277,-48.46719 3.72772,-23.13182 25.33322,-38.73968 48.46716,-35.01278 11.56606,1.8641 21.25035,8.18891 27.57027,16.94692 z"
         sodipodi:nodetypes="cssccccccccsccccc" /><path
         inkscape:connector-curvature="0"
         id="path3058-6"
         style="text-indent:0;text-transform:none;block-progression:tb;color:#000000;fill:#ffffff"
         d="m 432.09011,512.26795 c -8.47687,-12.04814 -21.52755,-20.88163 -37.13065,-23.59649 -31.20574,-5.43004 -61.11921,15.58524 -66.54806,46.79075 -4.75955,27.35678 10.80783,53.68963 35.74664,63.43151 l -8.23288,47.32136 c 3.32999,8.41099 21.7406,7.91681 22.53385,3.92078 l 8.24764,-47.30038 c 26.75097,-0.75811 50.29561,-20.30287 55.05569,-47.65113 2.71442,-15.60275 -1.19173,-30.87086 -9.66828,-42.91854 z m -12.40217,8.69455 c 6.20982,8.83641 9.04132,20.04702 7.03331,31.58877 -4.01603,23.08351 -25.80024,38.44191 -48.88541,34.42645 -23.08336,-4.01682 -38.4211,-25.81624 -34.40541,-48.90021 4.01602,-23.08351 25.81455,-38.42062 48.90019,-34.40542 11.54191,2.00825 21.14655,8.45338 27.35671,17.28955 z"
         sodipodi:nodetypes="cssccccccccsccccc" /></g></g></svg>